<?xml version="1.0" encoding="UTF-8" standalone="no"?>
<svg
   xmlns:dc="http://purl.org/dc/elements/1.1/"
   xmlns:cc="http://creativecommons.org/ns#"
   xmlns:rdf="http://www.w3.org/1999/02/22-rdf-syntax-ns#"
   xmlns:svg="http://www.w3.org/2000/svg"
   xmlns="http://www.w3.org/2000/svg"
   xmlns:sodipodi="http://sodipodi.sourceforge.net/DTD/sodipodi-0.dtd"
   xmlns:inkscape="http://www.inkscape.org/namespaces/inkscape"
   viewBox="0 0 95 106.25"
   version="1.1"
   x="0px"
   y="0px"
   id="svg2"
   inkscape:version="0.91 r13725"
   sodipodi:docname="noun_maneki_773467.svg">
  <metadata
     id="metadata22">
    <rdf:RDF>
      <cc:Work
         rdf:about="">
        <dc:format>image/svg+xml</dc:format>
        <dc:type
           rdf:resource="http://purl.org/dc/dcmitype/StillImage" />
      </cc:Work>
    </rdf:RDF>
  </metadata>
  <defs
     id="defs20" />
  <sodipodi:namedview
     pagecolor="#ffffff"
     bordercolor="#666666"
     borderopacity="1"
     objecttolerance="10"
     gridtolerance="10"
     guidetolerance="10"
     inkscape:pageopacity="0"
     inkscape:pageshadow="2"
     inkscape:window-width="1920"
     inkscape:window-height="1017"
     id="namedview18"
     showgrid="false"
     inkscape:zoom="4.4423529"
     inkscape:cx="66.025689"
     inkscape:cy="69.241763"
     inkscape:window-x="-8"
     inkscape:window-y="-8"
     inkscape:window-maximized="1"
     inkscape:current-layer="svg2" />
  <title
     id="title4">maneki black</title>
  <desc
     id="desc6">Created with Sketch.</desc>
  <g
     stroke="none"
     stroke-width="1"
     fill="none"
     fill-rule="evenodd"
     id="g8"
     style="fill:#00538a;fill-opacity:1">
    <g
       transform="translate(0.000000, -1.000000)"
       fill="#000000"
       id="g10"
       style="fill:#00538a;fill-opacity:1">
      <path
         d="M20.567,16.416 C20.689,16.416 20.816,16.383 20.998,16.293 C21.485,16.048 22.779,15.4 24.565,14.879 C25.743,14.536 26.619,14.39 27.494,14.39 C28.24,14.39 28.6,14.025 28.748,13.808 C28.986,13.461 29.035,12.995 28.879,12.594 C28.632,11.963 28.012,11.393 27.974,11.361 C27.957,11.344 26.351,9.61 25.184,8.495 C24.532,7.873 23.721,7.099 22.846,7.099 C21.608,7.099 21.087,8.581 20.915,9.068 C19.953,11.809 19.881,15.283 19.883,15.372 C19.862,15.53 19.838,15.925 20.071,16.191 C20.197,16.337 20.373,16.416 20.567,16.416 L20.567,16.416 Z M43.871,35.599 C44.914,35.599 45.833,35.063 46.371,34.252 C46.908,35.063 47.827,35.599 48.871,35.599 C50.525,35.599 51.871,34.254 51.871,32.599 C51.871,32.322 51.646,32.099 51.371,32.099 C51.094,32.099 50.871,32.322 50.871,32.599 C50.871,33.702 49.973,34.599 48.871,34.599 C47.768,34.599 46.871,33.702 46.871,32.599 C46.871,32.322 46.646,32.099 46.371,32.099 C46.095,32.099 45.871,32.322 45.871,32.599 C45.871,33.702 44.974,34.599 43.871,34.599 C42.768,34.599 41.871,33.702 41.871,32.599 C41.871,32.322 41.646,32.099 41.371,32.099 C41.095,32.099 40.871,32.322 40.871,32.599 C40.871,34.254 42.217,35.599 43.871,35.599 L43.871,35.599 Z M24.871,34.099 C24.871,35.754 26.217,37.099 27.871,37.099 C29.525,37.099 30.871,35.754 30.871,34.099 C30.871,32.444 29.525,31.099 27.871,31.099 C26.217,31.099 24.871,32.444 24.871,34.099 L24.871,34.099 Z M64.871,37.099 C66.525,37.099 67.871,35.754 67.871,34.099 C67.871,32.444 66.525,31.099 64.871,31.099 C63.217,31.099 61.871,32.444 61.871,34.099 C61.871,35.754 63.217,37.099 64.871,37.099 L64.871,37.099 Z M74.709,39.849 C74.766,40.075 74.969,40.226 75.193,40.226 C75.234,40.226 75.275,40.221 75.316,40.211 C75.584,40.142 75.746,39.87 75.676,39.602 L75.158,37.566 C75.09,37.298 74.822,37.137 74.549,37.205 C74.281,37.274 74.121,37.545 74.189,37.813 L74.709,39.849 L74.709,39.849 Z M71.867,37.144 C71.6,37.212 71.439,37.484 71.508,37.753 L72.33,40.973 C72.387,41.199 72.59,41.35 72.814,41.35 C72.855,41.35 72.896,41.345 72.938,41.335 C73.205,41.266 73.367,40.994 73.299,40.726 L72.477,37.505 C72.408,37.237 72.137,37.074 71.867,37.144 L71.867,37.144 Z M69.979,38.166 C69.91,37.899 69.641,37.733 69.371,37.805 C69.104,37.873 68.941,38.146 69.01,38.413 L69.551,40.538 C69.607,40.764 69.811,40.914 70.035,40.914 C70.074,40.914 70.117,40.909 70.158,40.899 C70.426,40.831 70.588,40.558 70.52,40.292 L69.979,38.166 L69.979,38.166 Z M22.785,39.849 C22.842,40.075 23.045,40.226 23.268,40.226 C23.309,40.226 23.351,40.221 23.392,40.211 C23.66,40.142 23.822,39.87 23.752,39.602 L23.234,37.566 C23.165,37.298 22.891,37.135 22.625,37.205 C22.358,37.274 22.197,37.545 22.265,37.813 L22.785,39.849 L22.785,39.849 Z M20.405,40.973 C20.462,41.199 20.665,41.35 20.888,41.35 C20.929,41.35 20.971,41.345 21.013,41.335 C21.28,41.266 21.442,40.994 21.373,40.726 L20.552,37.505 C20.483,37.237 20.208,37.076 19.944,37.144 C19.676,37.212 19.514,37.484 19.582,37.753 L20.405,40.973 L20.405,40.973 Z M64.346,14.39 C65.223,14.39 66.096,14.536 67.273,14.879 C69.061,15.4 70.355,16.048 70.895,16.319 C71.023,16.383 71.15,16.416 71.271,16.416 C71.467,16.416 71.643,16.337 71.77,16.191 C72.002,15.924 71.977,15.529 71.961,15.43 C71.957,15.283 71.885,11.809 70.922,9.068 C70.752,8.581 70.23,7.099 68.992,7.099 C68.117,7.099 67.307,7.873 66.654,8.496 C65.494,9.605 63.895,11.33 63.896,11.33 C63.828,11.393 63.207,11.963 62.959,12.594 C62.803,12.996 62.854,13.462 63.09,13.809 C63.238,14.025 63.6,14.39 64.346,14.39 L64.346,14.39 Z M17.625,40.538 C17.684,40.764 17.887,40.914 18.11,40.914 C18.151,40.914 18.193,40.909 18.234,40.899 C18.501,40.83 18.663,40.558 18.595,40.292 L18.053,38.166 C17.984,37.898 17.712,37.736 17.445,37.805 C17.178,37.873 17.016,38.146 17.083,38.413 L17.625,40.538 L17.625,40.538 Z M38.833,77.672 C38.729,77.416 38.437,77.29 38.183,77.396 L26.357,82.193 C26.101,82.297 25.977,82.588 26.081,82.845 C26.16,83.038 26.347,83.156 26.545,83.156 C26.607,83.156 26.671,83.146 26.733,83.119 L38.559,78.322 C38.815,78.22 38.937,77.929 38.833,77.672 L38.833,77.672 Z M39.941,74.317 C39.836,74.062 39.542,73.938 39.289,74.042 L23.093,80.611 C22.837,80.715 22.714,81.006 22.817,81.263 C22.895,81.456 23.082,81.574 23.281,81.574 C23.344,81.574 23.407,81.562 23.468,81.537 L39.665,74.969 C39.921,74.864 40.044,74.573 39.941,74.317 L39.941,74.317 Z M39.941,71.411 C39.836,71.155 39.543,71.029 39.289,71.137 L20.183,78.887 C19.927,78.989 19.804,79.28 19.908,79.536 C19.987,79.73 20.174,79.85 20.371,79.85 C20.433,79.85 20.497,79.837 20.559,79.812 L39.665,72.063 C39.921,71.958 40.044,71.667 39.941,71.411 L39.941,71.411 Z M20.371,43.099 C23.404,43.099 25.871,41.304 25.871,39.099 C25.871,36.893 23.404,35.099 20.371,35.099 C17.338,35.099 14.871,36.893 14.871,39.099 C14.871,41.304 17.338,43.099 20.371,43.099 L20.371,43.099 Z M20.371,36.099 C22.852,36.099 24.871,37.444 24.871,39.099 C24.871,40.754 22.852,42.099 20.371,42.099 C17.889,42.099 15.871,40.754 15.871,39.099 C15.871,37.444 17.889,36.099 20.371,36.099 L20.371,36.099 Z M5.601,34.014 C7.187,34.237 8.054,34.543 8.068,34.547 C8.124,34.567 8.182,34.577 8.239,34.577 C8.443,34.577 8.635,34.451 8.708,34.249 C8.803,33.989 8.67,33.703 8.411,33.608 C8.352,33.587 7.416,33.255 5.719,33.021 C5.858,32.121 6.092,31.194 6.437,30.259 C8.134,30.759 8.803,31.775 8.84,31.834 C8.935,31.986 9.098,32.069 9.265,32.069 C9.354,32.069 9.445,32.045 9.526,31.995 C9.762,31.851 9.834,31.544 9.69,31.308 C9.646,31.236 8.834,29.96 6.816,29.331 C6.823,29.316 6.828,29.302 6.833,29.287 C8.28,26.104 10.778,23.128 12.431,21.159 C13.859,19.458 14.267,18.946 14.184,18.467 C13.592,15.053 15.708,2.829 20.4,1.336 C24.021,0.182 31.91,6.317 35.582,9.594 C33.461,10.13 32.254,10.638 32.217,10.654 C31.963,10.763 31.847,11.058 31.956,11.312 C32.066,11.565 32.362,11.68 32.613,11.572 C32.729,11.521 44.575,6.539 60.164,11.588 C60.215,11.605 60.268,11.613 60.318,11.613 C60.529,11.613 60.725,11.479 60.793,11.267 C60.879,11.004 60.734,10.722 60.471,10.637 C59.439,10.303 58.424,10.013 57.426,9.761 C60.242,4.523 69.385,0.993 71.896,0.993 C74.045,0.993 75.408,4.251 76.725,7.399 L76.92,7.864 C77.9,10.207 78.152,14.287 78.303,16.726 C78.418,18.59 78.445,18.84 78.652,19.055 C82.299,22.817 84.416,26.39 85.654,29.263 C83.912,29.934 83.1,31.026 83.051,31.093 C82.895,31.318 82.949,31.629 83.176,31.786 C83.262,31.848 83.363,31.878 83.463,31.878 C83.619,31.878 83.773,31.804 83.871,31.668 C83.91,31.613 84.578,30.737 86.029,30.186 C86.359,31.039 86.613,31.816 86.801,32.502 C85.639,32.679 84.838,32.958 84.777,32.981 C84.518,33.073 84.383,33.359 84.477,33.62 C84.549,33.824 84.742,33.951 84.947,33.951 C85.002,33.951 85.061,33.941 85.115,33.921 C85.129,33.917 85.914,33.64 87.047,33.476 C87.186,34.098 87.271,34.609 87.318,34.987 C85.332,34.349 80.008,33.137 77.271,37.298 C76.361,35.971 74.512,35.099 72.371,35.099 C69.338,35.099 66.871,36.893 66.871,39.099 C66.871,41.304 69.338,43.099 72.371,43.099 C73.9,43.099 75.318,42.645 76.342,41.862 C76.432,42.087 76.537,42.305 76.676,42.509 C76.908,42.848 77.203,43.139 77.541,43.389 C52.842,51.945 31.992,47.614 30.731,47.337 C30.362,47.098 29.977,46.873 29.565,46.684 C27.105,45.549 23.914,45.285 21.581,45.512 C20.991,45.443 11.636,44.334 7.275,40.276 C6.083,39.168 5.38,36.797 5.601,34.014 L5.601,34.014 Z M76.703,38.332 C76.689,38.36 76.674,38.386 76.66,38.415 C76.281,39.258 76.104,40.032 76.119,40.734 C75.285,41.577 73.875,42.099 72.371,42.099 C69.889,42.099 67.871,40.754 67.871,39.099 C67.871,37.444 69.889,36.099 72.371,36.099 C74.412,36.099 76.176,37.028 76.703,38.332 L76.703,38.332 Z M38.24,58.297 C39.247,57.562 40.388,56.728 45.527,56.728 C50.465,56.728 52.127,57.857 53.523,59.115 C53.873,59.432 53.9,59.623 53.889,59.653 C53.877,59.687 53.746,59.78 53.455,59.78 C53.076,59.78 52.631,59.618 52.234,59.337 C50.563,58.149 47.014,58.124 45.679,58.115 L45.531,58.114 C45.402,58.113 45.235,58.108 45.038,58.104 C44.695,58.092 44.264,58.079 43.784,58.079 C41.091,58.079 39.269,58.508 38.22,59.392 C37.74,59.793 37.519,59.814 37.479,59.814 L37.467,59.814 C37.454,59.806 37.409,59.75 37.371,59.613 C37.343,59.49 37.408,58.906 38.24,58.297 L38.24,58.297 Z M37.313,55.935 C37.782,56.066 38.34,56.199 38.861,56.27 C38.749,56.474 38.648,56.684 38.554,56.899 C38.333,57.024 38.126,57.154 37.929,57.291 C37.802,56.986 37.599,56.525 37.313,55.935 L37.313,55.935 Z M40.012,56.29 C41.286,54.323 43.456,53.1 45.871,53.1 C48.367,53.1 50.685,54.58 51.926,56.82 C50.557,56.179 48.629,55.728 45.527,55.728 C42.851,55.728 41.19,55.941 40.012,56.29 L40.012,56.29 Z M43.784,59.079 C44.253,59.079 44.673,59.092 45.008,59.103 C45.214,59.108 45.388,59.113 45.523,59.114 L45.672,59.115 C46.802,59.123 50.24,59.147 51.654,60.151 C52.031,60.418 52.441,60.583 52.842,60.671 C52.562,64.086 49.826,66.813 46.405,67.071 L46.382,65.067 C48.371,64.913 49.871,63.893 49.871,62.6 C49.871,61.196 48.113,60.1 45.871,60.1 C43.628,60.1 41.871,61.196 41.871,62.6 C41.871,63.896 43.381,64.921 45.381,65.068 L45.405,67.075 C41.779,66.835 38.899,63.827 38.873,60.149 C39.728,59.44 41.379,59.079 43.784,59.079 L43.784,59.079 Z M45.871,64.1 C44.102,64.1 42.871,63.31 42.871,62.6 C42.871,61.89 44.102,61.1 45.871,61.1 C47.639,61.1 48.871,61.89 48.871,62.6 C48.871,63.31 47.639,64.1 45.871,64.1 L45.871,64.1 Z M45.871,68.1 C50.078,68.1 53.529,64.832 53.84,60.704 C54.307,60.618 54.676,60.391 54.822,60.013 C54.937,59.715 55.008,59.107 54.193,58.373 C53.953,58.156 53.699,57.941 53.424,57.731 C53.314,57.405 53.184,57.094 53.039,56.788 C55.49,56.415 63.81,55.006 71.482,52.055 C71.711,53.747 72.186,58.43 70.855,60.938 C69.711,63.094 63.037,73.755 43.546,73.074 C43.595,71.929 43.449,70.845 43.088,69.901 C42.569,68.545 42.245,67.682 42.038,67.118 C43.177,67.742 44.483,68.1 45.871,68.1 L45.871,68.1 Z M52.508,55.856 C51.037,53.578 48.545,52.1 45.871,52.1 C43.29,52.1 40.955,53.322 39.471,55.318 C38.518,55.316 36.908,54.77 36.674,54.689 C36.29,53.974 35.839,53.191 35.306,52.382 L35.137,52.12 C34.642,51.355 33.732,49.943 32.396,48.663 C34.89,49.072 39.637,49.68 45.912,49.68 C54.594,49.68 66.18,48.516 78.682,44.057 C78.691,44.053 78.697,44.045 78.707,44.041 C79.742,44.481 80.92,44.7 81.939,44.809 C74.363,52.356 55.144,55.461 52.508,55.856 L52.508,55.856 Z M18.965,46.124 C17.456,46.728 16.223,47.314 15.227,47.858 C13.89,47.06 9.564,44.364 6.667,41.365 C6.744,41.294 6.798,41.241 6.833,41.209 C10.158,44.131 15.713,45.528 18.965,46.124 L18.965,46.124 Z M0.452,50.327 C1.016,47.358 4.309,43.727 5.953,42.066 C8.674,44.882 12.502,47.369 14.237,48.431 C12.652,49.398 11.842,50.17 11.499,50.551 C10.557,49.776 10.19,49.053 10.164,48.996 C10.049,48.747 9.755,48.64 9.501,48.751 C9.25,48.866 9.14,49.163 9.255,49.414 C9.301,49.516 10.428,51.899 14.059,52.979 C16.958,53.839 18.491,55.438 18.641,57.741 C17.623,56.782 16.755,56.615 16.708,56.608 C16.443,56.561 16.185,56.743 16.138,57.015 C16.09,57.283 16.27,57.541 16.54,57.594 C16.581,57.603 17.535,57.81 18.568,59.152 C18.516,59.5 18.447,59.857 18.345,60.23 C18.13,61.014 17.653,61.632 16.931,62.084 C16.175,60.209 14.56,59.65 14.488,59.627 C14.225,59.54 13.947,59.687 13.861,59.947 C13.775,60.208 13.917,60.49 14.179,60.577 C14.233,60.597 15.458,61.035 16.028,62.504 C13.116,63.547 8.002,62.605 4.262,60.296 C-0.598,57.299 -0.352,54.557 0.452,50.327 L0.452,50.327 Z M13.035,85.301 C11.644,85.638 10.749,85.604 10.309,85.2 C9.91,84.838 9.792,84.071 9.958,82.921 C10.234,81.017 9.739,80.545 8.492,79.572 C7.651,78.917 6.38,77.926 4.664,75.735 C1.536,71.742 1.507,62.859 1.612,59.581 C2.198,60.106 2.891,60.626 3.737,61.148 C4.667,61.722 5.672,62.204 6.702,62.609 C6.706,62.62 6.705,62.632 6.709,62.644 L15.052,80.733 C15.072,80.775 16.229,83.025 19.04,84.781 C17.261,84.796 14.719,84.895 13.035,85.301 L13.035,85.301 Z M30.095,85.505 C30.046,85.502 30.007,85.5 29.998,85.5 C29.895,85.485 29.806,85.518 29.726,85.563 C19.533,87.221 16.09,80.577 15.954,80.305 L8.01,63.073 C9.782,63.633 11.583,63.94 13.206,63.94 C14.463,63.94 15.612,63.763 16.557,63.39 C17.994,62.822 18.946,61.821 19.309,60.492 C19.438,60.02 19.527,59.563 19.581,59.118 C19.586,59.102 19.588,59.084 19.59,59.066 C19.596,59.014 19.602,58.96 19.607,58.906 C19.611,58.905 19.616,58.906 19.619,58.904 L29.371,54.95 C29.626,54.848 29.749,54.557 29.646,54.301 C29.542,54.044 29.248,53.917 28.995,54.025 L19.634,57.82 C19.605,57.219 19.498,56.651 19.314,56.123 L27.468,52.816 C27.724,52.713 27.847,52.422 27.743,52.166 C27.639,51.91 27.347,51.784 27.092,51.892 L18.904,55.212 C18.614,54.708 18.237,54.252 17.782,53.839 L23.456,51.537 C23.712,51.435 23.834,51.144 23.732,50.888 C23.626,50.63 23.334,50.507 23.08,50.611 L16.853,53.138 C16.145,52.686 15.312,52.308 14.344,52.02 C13.532,51.777 12.868,51.466 12.323,51.137 C12.911,50.519 14.86,48.788 19.7,46.904 C21.206,46.317 25.777,46.036 29.145,47.591 C31.823,48.825 33.556,51.516 34.296,52.662 L34.472,52.934 C36.013,55.272 36.947,57.521 37.122,57.956 C36.378,58.73 36.302,59.497 36.407,59.876 C36.638,60.723 37.235,60.814 37.479,60.814 C37.615,60.814 37.757,60.78 37.903,60.733 C38.076,62.926 39.133,64.871 40.722,66.212 C40.789,66.689 41.188,67.733 42.154,70.26 C42.975,72.404 42.507,75.549 40.961,78.271 C39.709,80.472 36.637,84.319 30.095,85.505 L30.095,85.505 Z M84.65,79.35 C82.635,81.228 82.84,82.606 83.018,83.824 C83.066,84.157 83.113,84.472 83.113,84.788 C83.113,84.856 83.098,84.911 83.021,84.977 C82.502,85.409 80.637,85.32 79.463,85.115 C79.035,85.056 75.269,84.534 74.197,84.711 C62.994,86.562 41.704,85.971 33.423,85.648 C38.242,83.915 40.714,80.729 41.83,78.765 C42.696,77.239 43.245,75.619 43.457,74.072 C44.09,74.096 44.719,74.111 45.335,74.111 C52.711,74.111 58.996,72.502 64.041,69.317 C68.791,66.319 71.006,62.785 71.738,61.405 C73.295,58.471 72.666,53.205 72.439,51.676 C76.721,49.941 80.697,47.711 83.223,44.896 C83.883,44.916 84.334,44.896 84.381,44.892 C84.559,44.908 88.764,45.2 89.756,42.135 C89.842,41.872 89.697,41.59 89.436,41.505 C89.168,41.42 88.891,41.564 88.807,41.826 C88.293,43.405 86.477,43.791 85.34,43.878 C84.266,42.316 84.801,40.984 84.83,40.918 C84.941,40.667 84.83,40.372 84.578,40.258 C84.326,40.146 84.031,40.256 83.916,40.508 C83.885,40.579 83.236,42.087 84.184,43.901 C83.311,43.928 81.813,43.868 80.416,43.54 C79.949,42.215 80.682,40.669 80.689,40.653 C80.809,40.405 80.707,40.106 80.459,39.985 C80.211,39.862 79.912,39.967 79.791,40.213 C79.758,40.282 79.08,41.7 79.309,43.205 C78.543,42.912 77.885,42.506 77.5,41.944 C76.967,41.166 76.992,40.117 77.572,38.825 C80.17,33.041 87.393,36.053 87.725,36.194 C87.93,36.271 92.734,38.109 93.914,45.422 C94.891,51.465 92.23,54.383 91.229,55.481 C90.865,55.878 90.684,56.077 90.725,56.388 C92.523,69.764 87.691,76.515 84.65,79.35 L84.65,79.35 Z"
         id="path12"
         style="fill:#00538a;fill-opacity:1" />
    </g>
  </g>
  <text
     x="0"
     y="100"
     fill="#000000"
     font-size="5px"
     font-weight="bold"
     font-family="'Helvetica Neue', Helvetica, Arial-Unicode, Arial, Sans-serif"
     id="text14">Created by Sixth planet</text>
  <text
     x="0"
     y="105"
     fill="#000000"
     font-size="5px"
     font-weight="bold"
     font-family="'Helvetica Neue', Helvetica, Arial-Unicode, Arial, Sans-serif"
     id="text16">from the Noun Project</text>
  <rect
     style="opacity:0.4;fill:#00538a;fill-opacity:0.00392157;stroke:#fdfdfd;stroke-width:2;stroke-linecap:round;stroke-linejoin:round;stroke-miterlimit:4;stroke-dasharray:none;stroke-dashoffset:0;stroke-opacity:1"
     id="rect4146"
     width="100.63559"
     height="100.63559"
     x="-3.2706583"
     y="-9.3485165"
     inkscape:export-xdpi="56.119999"
     inkscape:export-ydpi="56.119999" />
</svg>
